<?xml version="1.0" encoding="UTF-8"?>
<svg version="1.1" xmlns="http://www.w3.org/2000/svg" width="100" height="100">
<path d="M0 0 C1.68609375 -0.00580078 1.68609375 -0.00580078 3.40625 -0.01171875 C9.68890874 -0.0043792 15.77186655 0.29370253 22 1.125 C22.98619928 23.85916923 22.98619928 23.85916923 17 35.125 C16.33902456 37.31495183 16.33902456 37.31495183 16 39.125 C27.04831026 30.06414027 27.04831026 30.06414027 31.8125 17.125 C31.89576237 15.79280204 31.96602312 14.45936487 32 13.125 C30.02 13.125 28.04 13.125 26 13.125 C26.66 10.815 27.32 8.505 28 6.125 C31.96 6.125 35.92 6.125 40 6.125 C40.39354462 18.45606486 39.60093281 27.81788534 31 37.125 C23.78664116 44.52523342 15.70423835 51.27992855 5 52.125 C5 54.765 5 57.405 5 60.125 C0.05 60.62 0.05 60.62 -5 61.125 C-5 58.155 -5 55.185 -5 52.125 C-6.8871875 51.8465625 -6.8871875 51.8465625 -8.8125 51.5625 C-18.92685822 49.27605167 -27.58315689 42.04941468 -34 34.125 C-38.50091293 26.89985029 -40.14832986 20.80965631 -40.0625 12.3125 C-40.05347656 11.15105469 -40.04445313 9.98960938 -40.03515625 8.79296875 C-40.02355469 7.91253906 -40.01195312 7.03210938 -40 6.125 C-36.04 6.125 -32.08 6.125 -28 6.125 C-27.34 8.435 -26.68 10.745 -26 13.125 C-27.98 13.125 -29.96 13.125 -32 13.125 C-31.71933995 21.96579172 -28.9227158 27.29172724 -22.6015625 33.46875 C-20.43875733 35.40640511 -18.25010571 37.28991379 -16 39.125 C-16.46596838 36.80051404 -17.07330081 34.98705029 -18.19140625 32.8828125 C-23.46935328 22.74795125 -22.48332044 12.26665157 -22 1.125 C-14.63872559 0.14245702 -7.4213831 -0.02553228 0 0 Z " fill="#FD7D13" transform="translate(50,8.875)"/>
<path d="M0 0 C1.06369832 2.59355924 1.73963939 5.07393698 2.296875 7.8203125 C2.64492187 8.89925781 2.64492187 8.89925781 3 10 C3.99 10.33 4.98 10.66 6 11 C6 12.98 6 14.96 6 17 C-6.54 17 -19.08 17 -32 17 C-32 15.02 -32 13.04 -32 11 C-31.01 10.67 -30.02 10.34 -29 10 C-28.23205623 7.75816792 -28.23205623 7.75816792 -27.75 5.125 C-26.38633024 0.27947294 -26.38633024 0.27947294 -23.0625 -2.125 C-15.79046655 -4.2865386 -6.26530605 -4.53234906 0 0 Z " fill="#FD7D13" transform="translate(63,76)"/>
</svg>
