<?xml version="1.0" encoding="UTF-8"?>
<svg version="1.1" xmlns="http://www.w3.org/2000/svg" width="100" height="100">
<path d="M0 0 C2.7390485 -0.30400756 5.20263633 -0.41829599 7.9375 -0.375 C8.66646484 -0.38660156 9.39542969 -0.39820312 10.14648438 -0.41015625 C15.44690156 -0.38100638 15.44690156 -0.38100638 17.68942261 1.16377258 C19.50909905 3.71328991 19.50904822 5.66070411 19.69189453 8.77807617 C19.76852325 9.96749313 19.84515198 11.1569101 19.92410278 12.38237 C19.99297699 13.67286758 20.0618512 14.96336517 20.1328125 16.29296875 C20.21458641 17.64048111 20.29760493 18.98791846 20.38180542 20.33528137 C20.60087846 23.89427902 20.80317294 27.45404012 21.00195312 31.01422119 C21.20367832 34.57713244 21.42070191 38.13910352 21.63671875 41.70117188 C21.96460663 47.13016835 22.28154269 52.55965675 22.59082031 57.98974609 C22.81822684 61.95810135 23.05483671 65.92445159 23.33886719 69.88916016 C24.05910405 80.01164697 24 89.75262478 24 100 C-9 100 -42 100 -76 100 C-76 82.84 -76 65.68 -76 48 C-68.74 44.04 -61.48 40.08 -54 36 C-51.69 34.68 -49.38 33.36 -47 32 C-45.35 32 -43.7 32 -42 32 C-41.505 36.95 -41.505 36.95 -41 42 C-40.23856689 41.63648438 -39.47713379 41.27296875 -38.69262695 40.8984375 C-35.85408366 39.54891292 -33.01162347 38.20812377 -30.16625977 36.87304688 C-28.93774181 36.29446394 -27.7108244 35.71246934 -26.4855957 35.12695312 C-24.71995106 34.28391695 -22.9479186 33.45430104 -21.17578125 32.625 C-20.11270752 32.12226562 -19.04963379 31.61953125 -17.9543457 31.1015625 C-15 30 -15 30 -10 30 C-10 34.62 -10 39.24 -10 44 C-9.34 44 -8.68 44 -8 44 C-7.505 48.455 -7.505 48.455 -7 53 C-6.94180084 52.38025803 -6.88360168 51.76051605 -6.82363892 51.12199402 C-6.21711914 44.68116129 -5.5988257 38.24153668 -4.97363281 31.80249023 C-4.74175697 29.39815857 -4.51290114 26.99353369 -4.28710938 24.58862305 C-3.96233926 21.1350917 -3.62677983 17.68275498 -3.2890625 14.23046875 C-3.19001617 13.15226364 -3.09096985 12.07405853 -2.98892212 10.96318054 C-2.83899307 9.46196404 -2.83899307 9.46196404 -2.68603516 7.93041992 C-2.60165192 7.04883713 -2.51726868 6.16725433 -2.43032837 5.25895691 C-2 3 -2 3 0 0 Z M-62 54 C-62 57.3 -62 60.6 -62 64 C-60.02 64 -58.04 64 -56 64 C-56 60.7 -56 57.4 -56 54 C-57.98 54 -59.96 54 -62 54 Z M-44 54 C-44 57.3 -44 60.6 -44 64 C-42.02 64 -40.04 64 -38 64 C-38 60.7 -38 57.4 -38 54 C-39.98 54 -41.96 54 -44 54 Z M-26 54 C-26 57.3 -26 60.6 -26 64 C-24.02 64 -22.04 64 -20 64 C-20 60.7 -20 57.4 -20 54 C-21.98 54 -23.96 54 -26 54 Z M-62 72 C-62 75.3 -62 78.6 -62 82 C-60.02 82 -58.04 82 -56 82 C-56 78.7 -56 75.4 -56 72 C-57.98 72 -59.96 72 -62 72 Z M-44 72 C-44 75.3 -44 78.6 -44 82 C-42.02 82 -40.04 82 -38 82 C-38 78.7 -38 75.4 -38 72 C-39.98 72 -41.96 72 -44 72 Z M-26 72 C-26 75.3 -26 78.6 -26 82 C-24.02 82 -22.04 82 -20 82 C-20 78.7 -20 75.4 -20 72 C-21.98 72 -23.96 72 -26 72 Z " fill="#FC7D13" transform="translate(76,0)"/>
</svg>
