<?xml version="1.0" encoding="UTF-8"?>
<svg version="1.1" xmlns="http://www.w3.org/2000/svg" width="100" height="100">
<path d="M0 0 C8.73885226 6.53626102 14.76302116 15.91130269 16.38671875 26.78515625 C17.2137756 39.81130171 15.29386316 50.21345989 7.38671875 60.78515625 C-0.05486328 69.06808673 -9.63580837 74.27865004 -20.8125 74.98828125 C-33.66294166 75.16096356 -44.08481331 72.54891116 -53.84375 63.78125 C-63.12833937 54.04375383 -65.96127549 43.49530387 -65.82421875 30.3515625 C-65.18172891 19.48872496 -60.2733447 9.95521675 -52.42578125 2.47265625 C-37.18439892 -10.2671794 -16.45359492 -10.51273647 0 0 Z M-35.61328125 14.78515625 C-35.03983188 17.65240311 -34.75182975 18.64660775 -32.61328125 20.78515625 C-31.62328125 20.12515625 -30.63328125 19.46515625 -29.61328125 18.78515625 C-27.3515625 18.58984375 -27.3515625 18.58984375 -24.92578125 18.66015625 C-23.71341797 18.68722656 -23.71341797 18.68722656 -22.4765625 18.71484375 C-21.55423828 18.74964844 -21.55423828 18.74964844 -20.61328125 18.78515625 C-19.44056677 22.88965693 -19.55782743 25.03171883 -21.61328125 28.78515625 C-23.10992349 30.66002601 -24.66193122 32.45738397 -26.2734375 34.234375 C-28.95868473 37.34237253 -28.7002035 39.78673283 -28.61328125 43.78515625 C-26.63328125 43.78515625 -24.65328125 43.78515625 -22.61328125 43.78515625 C-22.42765625 42.63015625 -22.24203125 41.47515625 -22.05078125 40.28515625 C-21.15241718 36.53316512 -19.72110067 34.54302712 -17.05078125 31.78515625 C-14.53479552 29.11159313 -13.08527913 27.25512602 -12.48828125 23.59765625 C-12.6220666 19.51720322 -13.03723686 17.89417534 -15.61328125 14.78515625 C-19.59351753 11.16436862 -22.787326 11.35568808 -27.97265625 11.48046875 C-31.1262848 11.84434897 -33.16761398 12.76115575 -35.61328125 14.78515625 Z M-27.61328125 50.78515625 C-28.27328125 51.44515625 -28.93328125 52.10515625 -29.61328125 52.78515625 C-29.29286728 55.38796193 -29.29286728 55.38796193 -28.61328125 57.78515625 C-26.63328125 58.28015625 -26.63328125 58.28015625 -24.61328125 58.78515625 C-22.3065621 56.06966471 -22.3065621 56.06966471 -22.98828125 53.59765625 C-23.19453125 52.99953125 -23.40078125 52.40140625 -23.61328125 51.78515625 C-25.50507328 51.10367395 -25.50507328 51.10367395 -27.61328125 50.78515625 Z " fill="#FD7D13" transform="translate(74.61328125,16.21484375)"/>
</svg>
