<?xml version="1.0" encoding="UTF-8"?>
<svg version="1.1" xmlns="http://www.w3.org/2000/svg" width="100" height="100">
<path d="M0 0 C11.88 0 23.76 0 36 0 C36 1.65 36 3.3 36 5 C34.68 5 33.36 5 32 5 C29.9765655 24.47349595 33.74990913 35.99191679 45.29223633 51.17651367 C53.12751538 61.57111631 53.12751538 61.57111631 52.49658203 68.94311523 C51.6799513 72.32566877 50.34772968 74.46191385 48 77 C44.55055819 78.68770051 41.75836248 79.25416673 37.93774414 79.2746582 C36.95645035 79.28419022 35.97515656 79.29372223 34.96412659 79.30354309 C33.91506638 79.30263168 32.86600616 79.30172028 31.78515625 79.30078125 C30.69665878 79.30506638 29.60816132 79.3093515 28.48667908 79.31376648 C26.18782242 79.31950191 23.88894761 79.32001585 21.59008789 79.31567383 C18.07862302 79.31251451 14.56800136 79.33598156 11.05664062 79.36132812 C8.82031356 79.36360129 6.58398424 79.36430453 4.34765625 79.36328125 C2.77710228 79.37709587 2.77710228 79.37709587 1.17481995 79.39118958 C-5.20342057 79.35083315 -9.94000454 78.84896129 -14.8125 74.3125 C-16.55006128 70.92882803 -17.22104774 67.76562851 -17 64 C-14.1330318 57.30559314 -10.10072068 51.59043971 -5.875 45.6875 C-4.6222682 43.9206634 -3.36965864 42.15374013 -2.1171875 40.38671875 C-1.29130127 39.22982544 -1.29130127 39.22982544 -0.44873047 38.04956055 C2.51165677 33.86141581 3.27467469 31.71614901 3.4140625 26.58203125 C3.45273437 25.32841797 3.49140625 24.07480469 3.53125 22.78320312 C3.5621875 21.47287109 3.593125 20.16253906 3.625 18.8125 C3.66319338 17.4771884 3.70224591 16.14190108 3.7421875 14.80664062 C3.83659153 11.53790112 3.92217017 8.26916936 4 5 C2.68 5 1.36 5 0 5 C0 3.35 0 1.7 0 0 Z M10 5 C10 6.65 10 8.3 10 10 C11.98 10.66 13.96 11.32 16 12 C16 12.99 16 13.98 16 15 C14.02 15.33 12.04 15.66 10 16 C10 18.31 10 20.62 10 23 C11.98 23.33 13.96 23.66 16 24 C15.67 25.32 15.34 26.64 15 28 C13.35 28.33 11.7 28.66 10 29 C9.67 30.258125 9.34 31.51625 9 32.8125 C7.28409342 37.96827563 4.47324317 41.79130424 1.19921875 46.08203125 C-2.43069498 50.89827558 -5.68818634 55.96231161 -9 61 C-9.66 61.99 -10.32 62.98 -11 64 C-10.80849805 67.0640312 -10.61800259 69.20520219 -8.70750427 71.6622467 C-6.60125025 73.31240261 -5.52061316 73.38434539 -2.86743164 73.40405273 C-2.03969742 73.41673691 -1.2119632 73.42942108 -0.35914612 73.44248962 C0.97685387 73.43808617 0.97685387 73.43808617 2.33984375 73.43359375 C3.71759727 73.44145653 3.71759727 73.44145653 5.1231842 73.44947815 C7.0657551 73.45590159 9.00836487 73.45455719 10.95092773 73.44604492 C13.92306859 73.43754129 16.8932838 73.46628106 19.86523438 73.49804688 C21.75260359 73.49965913 23.63997621 73.49908089 25.52734375 73.49609375 C26.41598618 73.50732773 27.3046286 73.51856171 28.22019958 73.53013611 C33.2371779 73.49026472 33.2371779 73.49026472 37.58227539 71.15625 C39.25230738 69.01170368 39.25230738 69.01170368 39.15625 66.00390625 C38.18133009 61.35703419 35.62082858 57.41408376 33.33862305 53.30395508 C24.43094369 36.99430288 23.21977057 23.3801588 24 5 C19.38 5 14.76 5 10 5 Z " fill="#FC7D13" transform="translate(34,12)"/>
<path d="M0 0 C3.625 0.375 3.625 0.375 7 1 C7.625 3.8125 7.625 3.8125 8 7 C7.01 8.485 7.01 8.485 6 10 C3 10.3125 3 10.3125 0 10 C-2 8 -2 8 -2.25 5 C-2 2 -2 2 0 0 Z " fill="#FC7D13" transform="translate(35,71)"/>
<path d="M0 0 C1.2065625 0.0309375 1.2065625 0.0309375 2.4375 0.0625 C3.0625 2.4375 3.0625 2.4375 3.4375 5.0625 C2.7775 5.7225 2.1175 6.3825 1.4375 7.0625 C-1.1875 6.6875 -1.1875 6.6875 -3.5625 6.0625 C-3.605221 4.39638095 -3.60313832 2.72867115 -3.5625 1.0625 C-2.5625 0.0625 -2.5625 0.0625 0 0 Z " fill="#FD7A12" transform="translate(61.5625,68.9375)"/>
<path d="M0 0 C2.125 0.9375 2.125 0.9375 4 2 C3.67 3.32 3.34 4.64 3 6 C1.35 5.67 -0.3 5.34 -2 5 C-2 3.68 -2 2.36 -2 1 C-1.34 0.67 -0.68 0.34 0 0 Z " fill="#FD7C12" transform="translate(51,58)"/>
</svg>
