<?xml version="1.0" encoding="UTF-8"?>
<svg version="1.1" xmlns="http://www.w3.org/2000/svg" width="100" height="100">
<path d="M0 0 C1.27423828 -0.00193359 1.27423828 -0.00193359 2.57421875 -0.00390625 C3.91419922 0.00189453 3.91419922 0.00189453 5.28125 0.0078125 C6.17457031 0.00394531 7.06789063 0.00007813 7.98828125 -0.00390625 C8.83777344 -0.00261719 9.68726562 -0.00132813 10.5625 0 C11.34689453 0.00112793 12.13128906 0.00225586 12.93945312 0.00341797 C14.78125 0.1328125 14.78125 0.1328125 15.78125 1.1328125 C15.87436889 2.63699989 15.89871028 4.14552606 15.89477539 5.65258789 C15.89469986 6.61350845 15.89462433 7.57442902 15.89454651 8.56446838 C15.88938522 9.6092485 15.88422394 10.65402863 15.87890625 11.73046875 C15.8774913 12.79446396 15.87607635 13.85845917 15.87461853 14.95469666 C15.86900064 18.36826333 15.85644511 21.7817655 15.84375 25.1953125 C15.83873731 27.50325426 15.834174 29.81119705 15.83007812 32.11914062 C15.8190254 37.79038676 15.80226987 43.46159503 15.78125 49.1328125 C12.46876813 49.16169396 9.15631833 49.17957049 5.84375 49.1953125 C4.89822266 49.20369141 3.95269531 49.21207031 2.97851562 49.22070312 C1.62983398 49.22553711 1.62983398 49.22553711 0.25390625 49.23046875 C-0.99507446 49.23832397 -0.99507446 49.23832397 -2.26928711 49.24633789 C-4.21875 49.1328125 -4.21875 49.1328125 -5.21875 48.1328125 C-5.31697744 46.66475958 -5.3467337 45.1920379 -5.34814453 43.72070312 C-5.35287277 42.31419495 -5.35287277 42.31419495 -5.35769653 40.87927246 C-5.3556723 39.85950317 -5.35364807 38.83973389 -5.3515625 37.7890625 C-5.35251923 36.74963501 -5.35347595 35.71020752 -5.35446167 34.63928223 C-5.35514363 32.43676696 -5.35328827 30.23424971 -5.34912109 28.03173828 C-5.34377308 24.64741531 -5.34906559 21.26322506 -5.35546875 17.87890625 C-5.35480797 15.74479137 -5.35352681 13.61067658 -5.3515625 11.4765625 C-5.35358673 10.45679321 -5.35561096 9.43702393 -5.35769653 8.38635254 C-5.35454437 7.44868042 -5.35139221 6.5110083 -5.34814453 5.54492188 C-5.34734894 4.71520874 -5.34655334 3.88549561 -5.34573364 3.03063965 C-5.10358294 -0.58841055 -3.14355709 0.00452032 0 0 Z M0.78125 6.1328125 C0.78125 18.6728125 0.78125 31.2128125 0.78125 44.1328125 C4.08125 44.1328125 7.38125 44.1328125 10.78125 44.1328125 C10.78125 31.5928125 10.78125 19.0528125 10.78125 6.1328125 C7.48125 6.1328125 4.18125 6.1328125 0.78125 6.1328125 Z " fill="#FD7D13" transform="translate(71.21875,40.8671875)"/>
<path d="M0 0 C32.34 0 64.68 0 98 0 C98.495 1.98 98.495 1.98 99 4 C96.3287442 6.6712558 94.31339014 6.24569255 90.68109131 6.27105713 C89.79375305 6.26700867 88.90641479 6.26296021 87.9921875 6.25878906 C86.59205414 6.26404602 86.59205414 6.26404602 85.16363525 6.26940918 C82.06734863 6.27823702 78.97128909 6.27237361 75.875 6.265625 C73.73030554 6.26697135 71.58561138 6.26891162 69.44091797 6.27142334 C64.94170227 6.27437603 60.44256587 6.27007228 55.94335938 6.26074219 C50.16590055 6.24934761 44.38862753 6.2559063 38.61117554 6.26788712 C34.18121939 6.27510179 29.75130755 6.27281959 25.3213501 6.26763153 C23.19061257 6.26629395 21.05987107 6.26794653 18.92913818 6.27259064 C15.95525399 6.2776494 12.98167395 6.26995476 10.0078125 6.25878906 C9.12047424 6.26283752 8.23313599 6.26688599 7.31890869 6.27105713 C1.2285276 6.2285276 1.2285276 6.2285276 -1 4 C-0.67 2.68 -0.34 1.36 0 0 Z " fill="#FD7D13" transform="translate(1,94)"/>
<path d="M0 0 C2.125 0.9375 2.125 0.9375 4 2 C-1.2499787 26.5602452 -20.5899309 48.73349086 -41.1171875 62.1875 C-42.06851563 62.785625 -43.01984375 63.38375 -44 64 C-44.72445312 64.474375 -45.44890625 64.94875 -46.1953125 65.4375 C-49.55657833 67.53283455 -52.02385753 68.48195666 -56 68 C-56.33 66.68 -56.66 65.36 -57 64 C-55.92363281 63.33355469 -54.84726562 62.66710938 -53.73828125 61.98046875 C-31.19584778 47.83797598 -14.46155212 31.20399874 -4.25708008 6.11621094 C-2.19486595 1.09743297 -2.19486595 1.09743297 0 0 Z " fill="#FD7C13" transform="translate(57,0)"/>
<path d="M0 0 C6.6 0 13.2 0 20 0 C21.47360305 2.94720609 21.14233596 5.93035368 21.1328125 9.16015625 C21.13424759 10.21776405 21.13424759 10.21776405 21.13571167 11.29673767 C21.13639229 12.78710011 21.13454621 14.27746552 21.13037109 15.76782227 C21.12501318 18.05687058 21.13032409 20.34572337 21.13671875 22.63476562 C21.1360581 24.0807296 21.13477722 25.52669346 21.1328125 26.97265625 C21.13483673 27.66118179 21.13686096 28.34970734 21.13894653 29.05909729 C21.11495764 33.88504236 21.11495764 33.88504236 20 35 C18.52347336 35.09880797 17.04232764 35.13079245 15.5625 35.1328125 C14.22058594 35.13474609 14.22058594 35.13474609 12.8515625 35.13671875 C11.91054688 35.13285156 10.96953125 35.12898438 10 35.125 C8.58847656 35.13080078 8.58847656 35.13080078 7.1484375 35.13671875 C6.25382812 35.13542969 5.35921875 35.13414063 4.4375 35.1328125 C3.61121094 35.13168457 2.78492188 35.13055664 1.93359375 35.12939453 C0 35 0 35 -1 34 C-1.10081087 31.64768301 -1.13972939 29.32538053 -1.1328125 26.97265625 C-1.13376923 26.26854111 -1.13472595 25.56442596 -1.13571167 24.838974 C-1.13639341 23.34683137 -1.13453952 21.85468579 -1.13037109 20.36254883 C-1.12503063 18.07561582 -1.1303121 15.78887992 -1.13671875 13.50195312 C-1.13605781 12.05468707 -1.13477632 10.60742113 -1.1328125 9.16015625 C-1.13483673 8.47365494 -1.13686096 7.78715363 -1.13894653 7.07984924 C-1.11495764 2.22991527 -1.11495764 2.22991527 0 0 Z M5 6 C5 13.92 5 21.84 5 30 C8.3 30 11.6 30 15 30 C15 22.08 15 14.16 15 6 C11.7 6 8.4 6 5 6 Z " fill="#FD7D13" transform="translate(40,55)"/>
<path d="M0 0 C1.32 0.33 2.64 0.66 4 1 C4 1.66 4 2.32 4 3 C4.61875 3.28875 5.2375 3.5775 5.875 3.875 C8 5 8 5 10 7 C9.625 9.625 9.625 9.625 9 12 C5 12 5 12 3.4375 10.5 C2.963125 10.005 2.48875 9.51 2 9 C1.01 9 0.02 9 -1 9 C-0.71793682 12.40238715 -0.37386909 13.67481178 2.25 15.95703125 C3.1575 16.56933594 4.065 17.18164062 5 17.8125 C10.70137913 22.15601839 10.70137913 22.15601839 11.4375 26.125 C10.87054166 31.14663099 9.65250014 32.60232545 6 36 C5.34 36 4.68 36 4 36 C3.67 36.99 3.34 37.98 3 39 C-1.2687882 38.5256902 -3.31511656 36.19283436 -6 33 C-6.8125 30.1875 -6.8125 30.1875 -7 28 C-4.6875 27.3125 -4.6875 27.3125 -2 27 C-0.1875 28.4375 -0.1875 28.4375 1 30 C1.99 29.67 2.98 29.34 4 29 C3.64624514 26.1637549 3.1930152 25.16884109 1.00390625 23.25390625 C-0.62071935 22.12836564 -2.24571815 21.00336353 -3.87109375 19.87890625 C-6.3235749 17.71442289 -7.10608546 16.12129275 -8 13 C-7.84789973 9.27354336 -7.432777 7.53050083 -5.0625 4.625 C-3 3 -3 3 -1 3 C-0.67 2.01 -0.34 1.02 0 0 Z " fill="#FD7C13" transform="translate(75,0)"/>
<path d="M0 0 C6.93 0 13.86 0 21 0 C21.020625 2.949375 21.04125 5.89875 21.0625 8.9375 C21.071604 9.86812256 21.08070801 10.79874512 21.09008789 11.75756836 C21.09258545 12.48596924 21.09508301 13.21437012 21.09765625 13.96484375 C21.10551147 15.08814087 21.10551147 15.08814087 21.11352539 16.23413086 C21 18 21 18 20 19 C18.5112814 19.08669432 17.018555 19.10703494 15.52734375 19.09765625 C14.62822266 19.09443359 13.72910156 19.09121094 12.80273438 19.08789062 C11.85720703 19.07951172 10.91167969 19.07113281 9.9375 19.0625 C8.98810547 19.05798828 8.03871094 19.05347656 7.06054688 19.04882812 C4.70700469 19.03700128 2.35349468 19.01906521 0 19 C0 12.73 0 6.46 0 0 Z M5 5 C5 7.97 5 10.94 5 14 C8.3 14 11.6 14 15 14 C15 11.03 15 8.06 15 5 C11.7 5 8.4 5 5 5 Z " fill="#FC7D13" transform="translate(13,71)"/>
</svg>
