<?xml version="1.0" encoding="UTF-8"?>
<svg version="1.1" xmlns="http://www.w3.org/2000/svg" width="100" height="100">
<path d="M0 0 C0 14.52 0 29.04 0 44 C-22.44 44 -44.88 44 -68 44 C-66.87909126 39.51636506 -66.27677803 39.1992825 -62.875 36.4375 C-58.10242007 31.93464201 -56.57964234 27.58783888 -54.6875 21.5 C-52.0423911 13.22763005 -49.01196932 9.06528821 -41.8671875 4.203125 C-38.53967861 2.80684062 -37.33721368 2.69923301 -34 4 C-33.21238281 4.66515625 -32.42476562 5.3303125 -31.61328125 6.015625 C-28.34487117 8.49746704 -26.24720707 8.58597143 -22.1875 8.75 C-21.02605469 8.80671875 -19.86460938 8.8634375 -18.66796875 8.921875 C-17.34732422 8.96054687 -17.34732422 8.96054687 -16 9 C-15.75894531 8.04867187 -15.51789063 7.09734375 -15.26953125 6.1171875 C-14 3 -14 3 -12.01171875 1.7578125 C-10.86123047 1.44457031 -10.86123047 1.44457031 -9.6875 1.125 C-8.92824219 0.90070312 -8.16898438 0.67640625 -7.38671875 0.4453125 C-5 0 -5 0 0 0 Z M-35 25 C-34.67 25.99 -34.34 26.98 -34 28 C-31.53199953 26.84826645 -29.95216435 25.95216435 -28 24 C-24.02642355 23.47018981 -22.45829619 23.68118526 -19.125 26 C-18.42375 26.66 -17.7225 27.32 -17 28 C-16.34 27.01 -15.68 26.02 -15 25 C-18.33019292 21.59895191 -20.81842447 19.24875274 -25.5625 18.25 C-30.32394006 19.28885965 -31.86720577 21.33233846 -35 25 Z " fill="#FC7D13" transform="translate(94,50)"/>
<path d="M0 0 C4.29183459 1.64557388 8.04580299 3.67400176 12 6 C11.40370213 10.26277033 9.90275565 13.30457791 7.75390625 17.015625 C7.42693756 17.5846907 7.09996887 18.15375641 6.76309204 18.74006653 C5.70311154 20.58078804 4.63316438 22.41547574 3.5625 24.25 C2.83129006 25.51330293 2.10057909 26.77689479 1.37036133 28.04077148 C-0.07726401 30.54320314 -1.52927121 33.04300627 -2.98535156 35.54052734 C-4.72682374 38.5277967 -6.45526771 41.52237913 -8.1796875 44.51953125 C-9.05661836 46.03424417 -9.93416072 47.54860334 -10.8125 49.0625 C-11.20171631 49.73893555 -11.59093262 50.41537109 -11.99194336 51.11230469 C-15.56054688 57.20250822 -15.56054688 57.20250822 -18 59 C-24.79245283 59.75471698 -24.79245283 59.75471698 -28.5 57.4375 C-30.60886013 54.01060228 -30.40788513 52.00212039 -30 48 C-28.70060577 45.00534271 -26.97650212 42.34903316 -25.1875 39.625 C-24.69338623 38.84552002 -24.19927246 38.06604004 -23.69018555 37.26293945 C-22.14291096 34.83115794 -20.57379206 32.41468595 -19 30 C-18.03321798 28.5017124 -17.06705281 27.00302655 -16.1015625 25.50390625 C-14.27271844 22.66980144 -12.43535731 19.84144759 -10.59375 17.015625 C-6.95429606 11.41021603 -3.467537 5.71299075 0 0 Z " fill="#FD7C13" transform="translate(36,26)"/>
<path d="M0 0 C0.66 -1.32 1.32 -2.64 2 -4 C9.3452188 -3.16531605 9.3452188 -3.16531605 12 0 C11.9175 1.19625 11.835 2.3925 11.75 3.625 C11.5730883 6.64908434 11.79778287 7.72535413 13.625 10.20703125 C15.066356 11.71992514 16.5118112 13.22892224 17.9609375 14.734375 C24.36808148 21.85342386 25.00564594 30.80222495 26 40 C23.39053135 39.63365991 22.24907198 39.27822544 20.46484375 37.28515625 C19.96082031 36.55167969 19.45679688 35.81820312 18.9375 35.0625 C6.65710369 18.679984 -11.79122365 8.1250514 -31.875 4.6875 C-33.58144573 4.44467678 -35.28919669 4.20993374 -37 4 C-37 2.68 -37 1.36 -37 0 C-24.52995921 -4.44084124 -12.16154552 -6.4752748 0 0 Z " fill="#FD7D13" transform="translate(47,11)"/>
<path d="M0 0 C0.7425 0.2475 1.485 0.495 2.25 0.75 C3 3 3 3 3.25 5.75 C1.625 8.125 1.625 8.125 -0.75 9.75 C-3.5 9.5 -3.5 9.5 -5.75 8.75 C-6.5 6.5 -6.5 6.5 -6.75 3.75 C-4.64876805 0.67896869 -3.78845323 -0.34440484 0 0 Z " fill="#FD7D13" transform="translate(90.75,37.25)"/>
<path d="M0 0 C1.99954746 -0.04254356 4.00041636 -0.04080783 6 0 C7 1 7 1 7.1328125 2.8125 C7.13023438 3.534375 7.12765625 4.25625 7.125 5 C7.12757812 5.721875 7.13015625 6.44375 7.1328125 7.1875 C7 9 7 9 6 10 C4.00041636 10.04080783 1.99954746 10.04254356 0 10 C0 6.7 0 3.4 0 0 Z " fill="#FC7E13" transform="translate(75,31)"/>
</svg>
