<?xml version="1.0" encoding="UTF-8"?>
<svg version="1.1" xmlns="http://www.w3.org/2000/svg" width="100" height="100">
<path d="M0 0 C3.0625 0.5 3.0625 0.5 5.01953125 2.51171875 C7.48374239 6.11615761 9.13927112 9.79459631 10.8125 13.8125 C11.12832031 14.55306641 11.44414063 15.29363281 11.76953125 16.05664062 C12.54087159 17.86812172 13.30266858 19.68366141 14.0625 21.5 C14.61711914 21.5501123 15.17173828 21.60022461 15.74316406 21.65185547 C18.26711964 21.88461674 20.78973539 22.12968036 23.3125 22.375 C24.62154297 22.49294922 24.62154297 22.49294922 25.95703125 22.61328125 C26.80136719 22.69707031 27.64570312 22.78085937 28.515625 22.8671875 C29.29067383 22.94050293 30.06572266 23.01381836 30.86425781 23.08935547 C33.29104796 23.5426941 34.99546719 24.14595193 37.0625 25.5 C38.125 28.8125 38.125 28.8125 38.0625 32.5 C35.83616292 35.41726928 33.41344151 37.24035606 30.46484375 39.421875 C25.05594019 43.43726252 25.05594019 43.43726252 22.60546875 49.38671875 C22.92895096 52.89814154 23.67680207 56.11634237 24.62109375 59.50390625 C25.1524579 61.90680075 25.26844267 64.16513235 25.3125 66.625 C25.33828125 67.49382812 25.3640625 68.36265625 25.390625 69.2578125 C25.28234375 69.99773437 25.1740625 70.73765625 25.0625 71.5 C21.50006011 73.87495993 20.26449529 74.02966327 16.0625 73.5 C12.87174139 71.88600112 10.0651541 69.71601414 7.18554688 67.61132812 C3.66934269 65.15684962 3.66934269 65.15684962 -0.46875 64.46875 C-4.90064376 66.32004739 -8.71104013 69.11646321 -12.68359375 71.78515625 C-16.1932918 73.63480504 -18.03925517 74.02086253 -21.9375 73.5 C-22.9275 72.84 -23.9175 72.18 -24.9375 71.5 C-25.92580785 65.87833493 -24.86974487 60.1423355 -23.375 54.703125 C-22.79091004 51.76181483 -22.55421556 49.4972843 -22.9375 46.5 C-25.18146419 43.74706186 -25.18146419 43.74706186 -28.1875 41.375 C-29.16203125 40.54742187 -30.1365625 39.71984375 -31.140625 38.8671875 C-32.06359375 38.08601563 -32.9865625 37.30484375 -33.9375 36.5 C-36.296875 34.421875 -36.296875 34.421875 -37.9375 32.5 C-37.9375 28.875 -37.9375 28.875 -36.9375 25.5 C-34.16682141 23.67494291 -31.65827065 23.17628912 -28.390625 22.8671875 C-27.12412109 22.74150391 -27.12412109 22.74150391 -25.83203125 22.61328125 C-24.95933594 22.53464844 -24.08664063 22.45601562 -23.1875 22.375 C-22.29933594 22.28863281 -21.41117188 22.20226562 -20.49609375 22.11328125 C-18.31047064 21.90176934 -16.12441762 21.69759773 -13.9375 21.5 C-13.7108667 20.97043701 -13.4842334 20.44087402 -13.25073242 19.89526367 C-12.21619389 17.48942757 -11.17073903 15.08848751 -10.125 12.6875 C-9.76857422 11.85412109 -9.41214844 11.02074219 -9.04492188 10.16210938 C-8.51801758 8.95844727 -8.51801758 8.95844727 -7.98046875 7.73046875 C-7.66102295 6.99207764 -7.34157715 6.25368652 -7.01245117 5.49291992 C-5.16621398 2.0700641 -3.88406929 0.66111818 0 0 Z " fill="#FAB004" transform="translate(49.9375,11.5)"/>
</svg>
