<?xml version="1.0" encoding="UTF-8"?>
<svg version="1.1" xmlns="http://www.w3.org/2000/svg" width="100" height="100">
<path d="M0 0 C1.67886353 1.15722656 1.67886353 1.15722656 3 3 C3.38095093 5.69433594 3.38095093 5.69433594 3.38818359 8.984375 C3.39764008 10.21575195 3.40709656 11.44712891 3.4168396 12.71582031 C3.41146989 14.06055014 3.40531694 15.40527704 3.3984375 16.75 C3.40045847 18.1285823 3.4033701 19.50716355 3.40713501 20.88574219 C3.41155735 23.77419214 3.40513058 26.66236367 3.39111328 29.55078125 C3.37402099 33.25329754 3.38386272 36.95516146 3.40183067 40.65765381 C3.41267121 43.50411902 3.40922103 46.35042955 3.4014473 49.19689941 C3.39944601 50.56205319 3.40190208 51.92722102 3.40888596 53.2923584 C3.4165039 55.2001112 3.40283406 57.10791324 3.38818359 59.015625 C3.38579681 60.10133789 3.38341003 61.18705078 3.38095093 62.30566406 C3 65 3 65 1.6546936 66.81762695 C-0.89921361 68.64253946 -2.88268648 68.9029479 -6 69 C-8.60546875 67.62890625 -8.60546875 67.62890625 -11.1875 65.5625 C-12.13753906 64.8303125 -13.08757813 64.098125 -14.06640625 63.34375 C-15.99290276 61.80460499 -17.91744754 60.26301325 -19.83984375 58.71875 C-24.97257489 54.74502266 -28.48789305 52.29757078 -35.0546875 52.1328125 C-37.93085659 51.93644754 -39.76600413 50.74530927 -42 49 C-44.11473089 44.77053822 -43.31807595 39.27207217 -43.375 34.625 C-43.41238281 33.47515625 -43.44976562 32.3253125 -43.48828125 31.140625 C-43.57665092 22.71605001 -43.57665092 22.71605001 -40.75390625 19.2109375 C-37.93651187 17.97208324 -36.5726437 17.74958943 -33.5625 18 C-26.52337901 17.62064617 -22.29063598 12.6456558 -17.39453125 8.078125 C-7.45059124 -1.14624481 -7.45059124 -1.14624481 0 0 Z " fill="#FC7D13" transform="translate(49,16)"/>
<path d="M0 0 C2.30859375 -0.23828125 2.30859375 -0.23828125 5 0 C13.78178815 8.36852753 16.91378094 23.77490148 17.25 35.4375 C16.88957263 47.35280481 13.84476587 59.09731275 7 69 C4.375 69.375 4.375 69.375 2 69 C1.67 68.67 1.34 68.34 1 68 C1.26468718 62.04453847 3.45267617 57.18420134 5.84375 51.76953125 C10.25258465 41.20918069 9.29648049 27.04962609 5.2265625 16.58203125 C3.64839952 13.25984739 1.87504608 10.10894111 -0.14453125 7.03515625 C-1.26739211 4.3638754 -0.77570498 2.73638261 0 0 Z " fill="#FD7D13" transform="translate(79,14)"/>
<path d="M0 0 C3.58795674 0.47151793 4.04618606 1.05407149 6.5625 4 C12.57576836 13.01065135 14.27156304 24.40065868 12.50390625 34.96484375 C11.13524131 41.09677197 9.53469515 47.39920142 5 52 C2.1875 52.5 2.1875 52.5 0 52 C-0.97898638 49.38936966 -1.25842298 47.64605745 -0.2109375 45.02734375 C0.4993642 43.66039624 1.23304712 42.30528393 1.9921875 40.96484375 C5.59459899 33.94153763 5.13292868 23.35452683 3.17578125 15.83203125 C1.75040867 12.24475527 0.14341602 9.21512402 -2 6 C-1.45945946 1.45945946 -1.45945946 1.45945946 0 0 Z " fill="#FD7C13" transform="translate(69,22)"/>
<path d="M0 0 C2.76515693 1.34068215 3.32460308 3.18070124 4.44067383 5.9453125 C5.50388226 9.45845037 5.49618647 12.85491788 5.4375 16.5 C5.44910156 17.22058594 5.46070312 17.94117187 5.47265625 18.68359375 C5.444804 23.81769153 4.34756571 27.40568798 2.0625 32 C0.4125 32 -1.2375 32 -2.9375 32 C-4.0625 30.375 -4.0625 30.375 -4.9375 28 C-4.64875 27.154375 -4.36 26.30875 -4.0625 25.4375 C-1.67004302 18.12721479 -2.69326351 11.18155676 -4.9375 4 C-4.6075 3.01 -4.2775 2.02 -3.9375 1 C-1.9375 0 -1.9375 0 0 0 Z " fill="#FC7C13" transform="translate(61.9375,32)"/>
</svg>
